<mxfile host="app.diagrams.net" modified="2023-05-20T15:36:05.957Z" agent="Mozilla/5.0 (X11; Linux x86_64) AppleWebKit/537.36 (KHTML, like Gecko) Chrome/113.0.0.0 Safari/537.36" version="21.3.2" etag="3FkJL3pvu7T2e8ww9ZHc" type="github">
  <diagram name="Page-1" id="Zp9yvOHxub2R6PVDsfeA">
    <mxGraphModel>
      <root>
        <mxCell id="0" />
        <mxCell id="1" parent="0" />
      </root>
    </mxGraphModel>
  </diagram>
</mxfile>
